#!OML:ASF X:\für Bonn\!DataBase\2005_08_12_Daniel\c3d\Daniel.ASF
:FULLY-SPECIFIED
:DEGREES
359
root 15.0769 1.27044 1.08329 -718.595 -83.2481 -119.119
lowerback 31.1212 -3.81811 4.60621
upperback 10.1034 -4.58891 -0.289257
thorax -5.87201 -2.71809 -1.30992
lowerneck 5.43531 2.4259 -9.94566
upperneck 4.30258 2.58556 3.71412
head 0.236525 1.11717 2.88807
rclavicle 1.66979e-014 -5.09883e-014
rhumerus -41.8619 -30.1482 -61.5458
rradius 7.54869
rwrist 65.7805
rhand -18.2256 -347.063
rfingers 7.12502
rthumb 8.05261 -376.889
lclavicle 1.66979e-014 -5.09883e-014
lhumerus -399.89 16.5799 -290.281
lradius 21.1477
lwrist -50.5249
lhand -6.14321 355.303
lfingers 7.12502
lthumb 19.6947 384.325
rfemur 176.998 -172.831 189.363
rtibia 70.611
rfoot 22.2244 4.64368
rtoes 4.73493
lfemur -6.3997 -2.07703 -8.33792
ltibia 68.7664
lfoot 36.8909 1.61845
ltoes 2.30999
360
root 15.0809 1.27302 1.08597 -718.882 -83.1861 -118.756
lowerback 31.1 -3.80937 4.56464
upperback 9.95238 -4.57217 -0.303911
thorax -6.0332 -2.70354 -1.30289
lowerneck 5.12387 2.38986 -10.0388
upperneck 4.14297 2.57119 3.78266
head 0.237951 1.11789 2.93187
rclavicle 2.8625e-014 -1.78906e-014
rhumerus -42.2926 -29.9109 -61.3731
rradius 7.58475
rwrist 66.3296
rhand -18.5699 -346.933
rfingers 7.12502
rthumb 7.72028 -376.772
lclavicle 2.8625e-014 -1.78906e-014
lhumerus -400.23 17.024 -290.835
lradius 20.7999
lwrist -51.3527
lhand -6.18556 354.988
lfingers 7.12502
lthumb 19.654 384.015
rfemur 177.31 -172.985 189.491
rtibia 69.9325
rfoot 23.5715 4.31445
rtoes 4.32878
lfemur -6.07388 -2.28134 -8.46192
ltibia 68.1214
lfoot 37.854 2.352
ltoes 3.02629
361
root 15.0824 1.27519 1.08927 -719.367 -83.1273 -118.186
lowerback 31.0731 -3.81341 4.54185
upperback 9.79826 -4.5675 -0.336313
thorax -6.19854 -2.69427 -1.32224
lowerneck 4.80523 2.35451 -10.2293
upperneck 4.00093 2.55316 3.89815
head 0.244676 1.11489 3.01068
rclavicle 4.37326e-015 -4.02539e-014
rhumerus -42.7332 -29.6556 -61.1893
rradius 7.70454
rwrist 66.8293
rhand -18.7003 -346.659
rfingers 7.12502
rthumb 7.59446 -376.503
lclavicle 4.37326e-015 -4.02539e-014
lhumerus -400.583 17.4192 -291.364
lradius 20.461
lwrist -52.224
lhand -6.2402 354.742
lfingers 7.12502
lthumb 19.6014 383.774
rfemur 177.657 -173.142 189.596
rtibia 69.2057
rfoot 25.026 3.94769
rtoes 4.00955
lfemur -5.75245 -2.53671 -8.65334
ltibia 67.4159
lfoot 38.6609 3.13241
ltoes 3.58901
362
root 15.0843 1.27683 1.09208 -719.6 -83.0787 -117.831
lowerback 31.0153 -3.8228 4.53765
upperback 9.63902 -4.56439 -0.355813
thorax -6.35561 -2.68551 -1.33887
lowerneck 4.47996 2.33744 -10.4694
upperneck 3.8491 2.55901 4.03123
head 0.246855 1.12365 3.10481
rclavicle 1.59028e-014 2.36057e-014
rhumerus -43.1191 -29.4004 -61.0408
rradius 7.85106
rwrist 67.3464
rhand -18.7221 -346.381
rfingers 7.12502
rthumb 7.57336 -376.225
lclavicle 1.59028e-014 2.36057e-014
lhumerus -400.92 17.8844 -291.91
lradius 20.0878
lwrist -53.2354
lhand -6.398 354.525
lfingers 7.12502
lthumb 19.4497 383.573
rfemur 177.98 -173.301 189.749
rtibia 68.44
rfoot 26.6357 3.49885
rtoes 4.0914
lfemur -5.46 -2.81206 -8.83976
ltibia 66.6458
lfoot 39.2533 3.83582
ltoes 4.00971
363
root 15.0824 1.27683 1.09457 -719.841 -83.0364 -117.433
lowerback 30.9309 -3.82717 4.54663
upperback 9.47604 -4.55206 -0.395678
thorax -6.50661 -2.67116 -1.39056
lowerneck 4.15126 2.30217 -10.6133
upperneck 3.71658 2.54644 4.12868
head 0.259265 1.12401 3.16912
rclavicle 4.81059e-014 -4.28878e-014
rhumerus -43.5136 -29.1823 -60.9089
rradius 8.04767
rwrist 67.8288
rhand -18.5354 -346.012
rfingers 7.12502
rthumb 7.75362 -375.85
lclavicle 4.81059e-014 -4.28878e-014
lhumerus -401.246 18.3084 -292.464
lradius 19.7458
lwrist -54.2786
lhand -6.5606 354.393
lfingers 7.12502
lthumb 19.2934 383.456
rfemur 178.276 -173.445 189.908
rtibia 67.6593
rfoot 28.3804 3.03036
rtoes 4.43956
lfemur -5.17628 -3.09959 -9.04667
ltibia 65.7995
lfoot 39.7308 4.50147
ltoes 4.72857
364
root 15.0802 1.27696 1.09718 -720.007 -83.0128 -117.062
lowerback 30.7908 -3.82724 4.55364
upperback 9.30651 -4.5365 -0.441343
thorax -6.63953 -2.65436 -1.45176
lowerneck 3.81852 2.27803 -10.7389
upperneck 3.60237 2.55044 4.22221
head 0.277427 1.13244 3.22863
rclavicle 1.86858e-014 -9.60378e-014
rhumerus -43.8696 -28.9823 -60.8242
rradius 8.25356
rwrist 68.3275
rhand -18.2506 -345.588
rfingers 7.12502
rthumb 8.02843 -375.416
lclavicle 1.86858e-014 -9.60378e-014
lhumerus -401.562 18.6942 -293
lradius 19.4108
lwrist -55.3645
lhand -6.79935 354.309
lfingers 7.12502
lthumb 19.0638 383.394
rfemur 178.538 -173.613 190.075
rtibia 66.8555
rfoot 30.1959 2.35669
rtoes 5.00435
lfemur -4.88938 -3.4095 -9.28387
ltibia 64.8556
lfoot 39.9461 5.11106
ltoes 5.33019
365
root 15.0742 1.27586 1.09924 -720.152 -82.9868 -116.699
lowerback 30.6455 -3.83882 4.57098
upperback 9.13507 -4.53449 -0.500038
thorax -6.77441 -2.64439 -1.52869
lowerneck 3.47379 2.23763 -10.8463
upperneck 3.4995 2.53525 4.31038
head 0.30338 1.13128 3.28352
rclavicle -1.31198e-013 1.99555e-013
rhumerus -44.1945 -28.7947 -60.7952
rradius 8.4759
rwrist 68.8276
rhand -17.8581 -345.189
rfingers 7.12502
rthumb 8.40732 -375.002
lclavicle -1.31198e-013 1.99555e-013
lhumerus -401.874 18.9373 -293.447
lradius 19.1493
lwrist -56.2782
lhand -6.99278 354.326
lfingers 7.12502
lthumb 18.8778 383.43
rfemur 178.771 -173.769 190.25
rtibia 66.0473
rfoot 32.0869 1.56567
rtoes 5.98959
lfemur -4.57908 -3.7695 -9.55236
ltibia 63.8148
lfoot 39.8669 5.6197
ltoes 5.55234
366
root 15.0695 1.27483 1.10092 -720.129 -82.9658 -116.484
lowerback 30.464 -3.84606 4.57492
upperback 8.9799 -4.53343 -0.539856
thorax -6.87128 -2.63567 -1.57931
lowerneck 3.06016 2.21116 -10.9316
upperneck 3.43666 2.5479 4.36661
head 0.353065 1.14375 3.32389
rclavicle 5.84427e-014 -8.18993e-014
rhumerus -44.4166 -28.6271 -60.8197
rradius 8.65073
rwrist 69.3584
rhand -17.4478 -344.845
rfingers 7.12502
rthumb 8.80323 -374.641
lclavicle 5.84427e-014 -8.18993e-014
lhumerus -402.121 19.1372 -293.805
lradius 18.882
lwrist -57.0241
lhand -7.17234 354.404
lfingers 7.12502
lthumb 18.7051 383.525
rfemur 179.008 -173.934 190.456
rtibia 65.2029
rfoot 34.0208 0.605479
rtoes 7.35021
lfemur -4.21737 -4.18466 -9.83317
ltibia 62.6524
lfoot 39.3839 6.14418
ltoes 5.48019
367
root 15.0657 1.27391 1.1031 -719.961 -82.9523 -116.399
lowerback 30.2852 -3.84562 4.6219
upperback 8.79351 -4.505 -0.580294
thorax -7.00519 -2.61245 -1.66383
lowerneck 2.74927 2.17861 -10.9942
upperneck 3.35235 2.54117 4.42745
head 0.379621 1.14628 3.36052
rclavicle 4.73108e-014 3.77691e-015
rhumerus -44.753 -28.4595 -60.7601
rradius 8.85572
rwrist 69.8483
rhand -16.9905 -344.509
rfingers 7.12502
rthumb 9.2445 -374.286
lclavicle 4.73108e-014 3.77691e-015
lhumerus -402.386 19.2096 -294.092
lradius 18.6662
lwrist -57.6846
lhand -7.2707 354.512
lfingers 7.12502
lthumb 18.6105 383.641
rfemur 179.238 -174.117 190.689
rtibia 64.3235
rfoot 35.9267 -0.49453
rtoes 8.39389
lfemur -3.80003 -4.66079 -10.1434
ltibia 61.3648
lfoot 38.5677 6.61257
ltoes 5.16856
368
root 15.0624 1.27263 1.10443 -719.907 -82.9328 -116.211
lowerback 30.1183 -3.84507 4.62634
upperback 8.6187 -4.49044 -0.608243
thorax -7.12839 -2.59735 -1.70489
lowerneck 2.48108 2.1552 -11.0765
upperneck 3.23542 2.54142 4.48917
head 0.387344 1.1525 3.40046
rclavicle -1.5704e-014 -4.94228e-014
rhumerus -44.9869 -28.2955 -60.7524
rradius 8.98663
rwrist 70.4001
rhand -16.5886 -344.283
rfingers 7.12502
rthumb 9.63232 -374.043
lclavicle -1.5704e-014 -4.94228e-014
lhumerus -402.628 19.188 -294.261
lradius 18.5061
lwrist -58.1539
lhand -7.31981 354.664
lfingers 7.12502
lthumb 18.5632 383.799
rfemur 179.495 -174.292 190.913
rtibia 63.4089
rfoot 37.8109 -1.65777
rtoes 8.7531
lfemur -3.28583 -5.19599 -10.5053
ltibia 59.9344
lfoot 37.5859 7.04631
ltoes 5.01233
369
root 15.0529 1.27163 1.10519 -719.817 -82.9174 -116.066
lowerback 29.9465 -3.8408 4.63053
upperback 8.44818 -4.47161 -0.63166
thorax -7.24327 -2.58049 -1.7428
lowerneck 2.26055 2.1353 -11.0909
upperneck 3.14679 2.54247 4.47569
head 0.39768 1.1579 3.40065
rclavicle -1.20861e-013 1.31272e-013
rhumerus -45.2999 -28.0615 -60.6651
rradius 9.17401
rwrist 70.9206
rhand -16.2448 -344.046
rfingers 7.12502
rthumb 9.96394 -373.79
lclavicle -1.20861e-013 1.31272e-013
lhumerus -402.808 19.0089 -294.303
lradius 18.375
lwrist -58.3615
lhand -7.1967 354.807
lfingers 7.12502
lthumb 18.6816 383.93
rfemur 179.798 -174.456 191.134
rtibia 62.4393
rfoot 39.552 -3.11299
rtoes 8.93042
lfemur -2.69383 -5.7805 -10.8897
ltibia 58.3714
lfoot 36.4718 7.48248
ltoes 4.93364
370
root 15.0443 1.27049 1.10561 -719.652 -82.914 -115.977
lowerback 29.744 -3.82595 4.63234
upperback 8.28442 -4.44091 -0.64807
thorax -7.33396 -2.55778 -1.77781
lowerneck 2.00431 2.11602 -11.0978
upperneck 3.1194 2.54814 4.45885
head 0.433912 1.16419 3.39919
rclavicle 2.18663e-015 4.07509e-014
rhumerus -45.5439 -27.8764 -60.6145
rradius 9.26751
rwrist 71.4417
rhand -15.9818 -343.924
rfingers 7.12502
rthumb 10.2177 -373.656
lclavicle 2.18663e-015 4.07509e-014
lhumerus -402.926 18.7634 -294.248
lradius 18.2492
lwrist -58.3488
lhand -7.05559 354.903
lfingers 7.12502
lthumb 18.8174 384.013
rfemur 180.101 -174.657 191.39
rtibia 61.4237
rfoot 41.2589 -4.65965
rtoes 9.62078
lfemur -2.0141 -6.40288 -11.3008
ltibia 56.6527
lfoot 35.2984 7.90561
ltoes 5.28157
371
root 15.0402 1.27052 1.1056 -719.641 -82.8802 -115.714
lowerback 29.5073 -3.81732 4.61002
upperback 8.11499 -4.4264 -0.660413
thorax -7.41374 -2.54267 -1.79023
lowerneck 1.69437 2.08723 -11.0468
upperneck 3.17599 2.54811 4.39447
head 0.508653 1.16595 3.3716
rclavicle 1.19271e-014 6.09275e-014
rhumerus -45.7831 -27.6834 -60.5694
rradius 9.3122
rwrist 71.9878
rhand -15.8794 -343.847
rfingers 7.12502
rthumb 10.3165 -373.574
lclavicle 1.19271e-014 6.09275e-014
lhumerus -403.036 18.4812 -294.135
lradius 18.145
lwrist -58.2783
lhand -6.89915 354.942
lfingers 7.12502
lthumb 18.9678 384.037
rfemur 180.411 -174.832 191.62
rtibia 60.3566
rfoot 42.9665 -6.3427
rtoes 11.7
lfemur -1.28315 -7.09936 -11.7665
ltibia 54.7933
lfoot 33.9949 8.29253
ltoes 5.31939
